<svg xmlns="http://www.w3.org/2000/svg" viewBox="0 0 100 100" preserveAspectRatio="xMidYMid" width="342" height="342" style="shape-rendering: auto; display: block; background: transparent;" xmlns:xlink="http://www.w3.org/1999/xlink"><g><g transform="rotate(0 50 50)">
  <rect x="48" y="22.5" rx="1.56" ry="1.56" width="4" height="13" fill="#fe718d">
    <animate attributeName="opacity" values="1;0" keyTimes="0;1" dur="0.5102040816326531s" begin="-0.4591836734693877s" repeatCount="indefinite"></animate>
  </rect>
</g><g transform="rotate(36 50 50)">
  <rect x="48" y="22.5" rx="1.56" ry="1.56" width="4" height="13" fill="#f47e60">
    <animate attributeName="opacity" values="1;0" keyTimes="0;1" dur="0.5102040816326531s" begin="-0.4081632653061224s" repeatCount="indefinite"></animate>
  </rect>
</g><g transform="rotate(72 50 50)">
  <rect x="48" y="22.5" rx="1.56" ry="1.56" width="4" height="13" fill="#f8b26a">
    <animate attributeName="opacity" values="1;0" keyTimes="0;1" dur="0.5102040816326531s" begin="-0.3571428571428571s" repeatCount="indefinite"></animate>
  </rect>
</g><g transform="rotate(108 50 50)">
  <rect x="48" y="22.5" rx="1.56" ry="1.56" width="4" height="13" fill="#abbd81">
    <animate attributeName="opacity" values="1;0" keyTimes="0;1" dur="0.5102040816326531s" begin="-0.3061224489795918s" repeatCount="indefinite"></animate>
  </rect>
</g><g transform="rotate(144 50 50)">
  <rect x="48" y="22.5" rx="1.56" ry="1.56" width="4" height="13" fill="#849b87">
    <animate attributeName="opacity" values="1;0" keyTimes="0;1" dur="0.5102040816326531s" begin="-0.25510204081632654s" repeatCount="indefinite"></animate>
  </rect>
</g><g transform="rotate(180 50 50)">
  <rect x="48" y="22.5" rx="1.56" ry="1.56" width="4" height="13" fill="#6492ac">
    <animate attributeName="opacity" values="1;0" keyTimes="0;1" dur="0.5102040816326531s" begin="-0.2040816326530612s" repeatCount="indefinite"></animate>
  </rect>
</g><g transform="rotate(216 50 50)">
  <rect x="48" y="22.5" rx="1.56" ry="1.56" width="4" height="13" fill="#637cb5">
    <animate attributeName="opacity" values="1;0" keyTimes="0;1" dur="0.5102040816326531s" begin="-0.1530612244897959s" repeatCount="indefinite"></animate>
  </rect>
</g><g transform="rotate(252 50 50)">
  <rect x="48" y="22.5" rx="1.56" ry="1.56" width="4" height="13" fill="#6a63b6">
    <animate attributeName="opacity" values="1;0" keyTimes="0;1" dur="0.5102040816326531s" begin="-0.1020408163265306s" repeatCount="indefinite"></animate>
  </rect>
</g><g transform="rotate(288 50 50)">
  <rect x="48" y="22.5" rx="1.56" ry="1.56" width="4" height="13" fill="#fe718d">
    <animate attributeName="opacity" values="1;0" keyTimes="0;1" dur="0.5102040816326531s" begin="-0.0510204081632653s" repeatCount="indefinite"></animate>
  </rect>
</g><g transform="rotate(324 50 50)">
  <rect x="48" y="22.5" rx="1.56" ry="1.56" width="4" height="13" fill="#f47e60">
    <animate attributeName="opacity" values="1;0" keyTimes="0;1" dur="0.5102040816326531s" begin="0s" repeatCount="indefinite"></animate>
  </rect>
</g><g></g></g><!-- [ldio] generated by https://loading.io --></svg>